<svg width="100%" viewBox="0 0 680 470" xmlns="http://www.w3.org/2000/svg" role="img">
<title>置信度头打分与截断</title>
<desc>把 hidden 和上个词向量拼起来过一个 Linear 得到分数，sigmoid 后低于阈值就截断</desc>
<defs><marker id="ar4" markerWidth="9" markerHeight="9" refX="7" refY="3" orient="auto"><path d="M0,0 L7,3 L0,6 Z" fill="#888"/></marker></defs>

<text font-family="sans-serif" font-size="14" fill="#1a1a1a" x="40" y="28" font-weight="500">放大盒子⑤：置信度头给每个词打"会被接受吗"的分（AcceptRatePredictor）</text>

<rect fill="#dce9fb" stroke="#7aa7e0" stroke-width="1.5" x="40" y="48" width="285" height="60" rx="8"/>
<text font-family="sans-serif" font-size="12" fill="#333333" x="58" y="72" font-weight="500">输入A：该位置的 hidden h_k</text>
<text font-family="sans-serif" font-size="12" fill="#333333" x="58" y="92">2560 维（骨干算的）</text>
<rect fill="#fbeacb" stroke="#dcab4e" stroke-width="1.5" x="355" y="48" width="285" height="60" rx="8"/>
<text font-family="sans-serif" font-size="12" fill="#333333" x="373" y="72" font-weight="500">输入B：上个词的查表向量 W1[x_{k-1}]</text>
<text font-family="sans-serif" font-size="12" fill="#333333" x="373" y="92">256 维（复用 Markov 的 W1）</text>
<line x1="182" y1="108" x2="300" y2="140" stroke="#888" stroke-width="1.5" marker-end="url(#ar4)"/>
<line x1="497" y1="108" x2="380" y2="140" stroke="#888" stroke-width="1.5" marker-end="url(#ar4)"/>

<rect fill="#e7dcf5" stroke="#a886d4" stroke-width="1.5" x="220" y="144" width="240" height="52" rx="8"/>
<text font-family="sans-serif" font-size="12" fill="#333333" x="240" y="166" font-weight="500">拼起来 = 2816 维</text>
<text font-family="sans-serif" font-size="12" fill="#333333" x="240" y="186">[ h_k ; W1[上个词] ]</text>
<line x1="340" y1="196" x2="340" y2="220" stroke="#888" stroke-width="1.5" marker-end="url(#ar4)"/>

<rect fill="#d8eedb" stroke="#79bd83" stroke-width="1.5" x="220" y="224" width="240" height="64" rx="8"/>
<text font-family="sans-serif" font-size="12" fill="#333333" x="240" y="248" font-weight="500">一个 Linear(2816 → 1)</text>
<text font-family="sans-serif" font-size="12" fill="#333333" x="240" y="268">→ 一个数 → sigmoid 压到 0~1</text>
<text font-family="sans-serif" font-size="12" fill="#333333" x="240" y="284">= c_k（这个词的接受概率）</text>
<line x1="340" y1="288" x2="340" y2="312" stroke="#888" stroke-width="1.5" marker-end="url(#ar4)"/>

<rect fill="#f0f0ee" stroke="#b8b8b2" stroke-width="1.5" x="40" y="316" width="600" height="134" rx="8"/>
<text font-family="sans-serif" font-size="14" fill="#1a1a1a" x="60" y="340" font-weight="500">用途：从前往后扫，第一个低于阈值的位置就"砍尾"</text>
<rect fill="#d8eedb" stroke="#79bd83" stroke-width="1.5" x="60" y="352" width="80" height="34" rx="4"/><text font-family="sans-serif" font-size="12" fill="#333333" x="78" y="374">c₁=0.9</text>
<rect fill="#d8eedb" stroke="#79bd83" stroke-width="1.5" x="148" y="352" width="80" height="34" rx="4"/><text font-family="sans-serif" font-size="12" fill="#333333" x="166" y="374">c₂=0.8</text>
<rect fill="#d8eedb" stroke="#79bd83" stroke-width="1.5" x="236" y="352" width="80" height="34" rx="4"/><text font-family="sans-serif" font-size="12" fill="#333333" x="254" y="374">c₃=0.7</text>
<rect fill="#f9d6cd" stroke="#e08c79" stroke-width="1.5" x="324" y="352" width="80" height="34" rx="4"/><text font-family="sans-serif" font-size="12" fill="#333333" x="338" y="374">c₄=0.3</text>
<rect fill="#f0f0ee" stroke="#b8b8b2" stroke-width="1.5" x="412" y="352" width="80" height="34" rx="4"/><text font-family="sans-serif" font-size="12" fill="#333333" x="430" y="374">c₅✂</text>
<rect fill="#f0f0ee" stroke="#b8b8b2" stroke-width="1.5" x="500" y="352" width="80" height="34" rx="4"/><text font-family="sans-serif" font-size="12" fill="#333333" x="518" y="374">c₆✂</text>
<text font-family="sans-serif" font-size="12" fill="#333333" x="60" y="410">阈值=0.5：c₄=0.3 首次跌破 → 只送前 3 个词去验证，后面砍掉</text>
<text font-family="sans-serif" font-size="12" fill="#333333" x="60" y="430">好处：大概率被拒的尾巴提前扔掉，不浪费 target 的算力（verify smarter）</text>
</svg>
