<svg width="520" height="240" viewBox="0 0 520 240" xmlns="http://www.w3.org/2000/svg" role="img" font-family="-apple-system,Segoe UI,Roboto,sans-serif">
<text x="260.0" y="22" font-size="14" text-anchor="middle" font-weight="bold" fill="#222">SWE-agent 输出 token 分布</text>
<line x1="40" y1="36" x2="40" y2="200" stroke="#888" stroke-width="1"/>
<line x1="40" y1="200" x2="500" y2="200" stroke="#888" stroke-width="1"/>
<rect x="41.0" y="125.93548387096774" width="36.333333333333336" height="74.06451612903226" rx="2" fill="#4a90d9"/>
<text x="59.16666666666667" y="122.93548387096774" font-size="10" text-anchor="middle" font-weight="normal" fill="#555">14</text>
<rect x="79.33333333333334" y="36.0" width="36.333333333333336" height="164.0" rx="2" fill="#4a90d9"/>
<text x="97.50000000000001" y="33.0" font-size="10" text-anchor="middle" font-weight="normal" fill="#555">31</text>
<rect x="117.66666666666667" y="104.77419354838709" width="36.333333333333336" height="95.22580645161291" rx="2" fill="#4a90d9"/>
<text x="135.83333333333334" y="101.77419354838709" font-size="10" text-anchor="middle" font-weight="normal" fill="#555">18</text>
<rect x="156.0" y="141.80645161290323" width="36.333333333333336" height="58.193548387096776" rx="2" fill="#4a90d9"/>
<text x="174.16666666666666" y="138.80645161290323" font-size="10" text-anchor="middle" font-weight="normal" fill="#555">11</text>
<rect x="194.33333333333334" y="168.25806451612902" width="36.333333333333336" height="31.741935483870968" rx="2" fill="#4a90d9"/>
<text x="212.5" y="165.25806451612902" font-size="10" text-anchor="middle" font-weight="normal" fill="#555">6</text>
<rect x="232.66666666666669" y="184.1290322580645" width="36.333333333333336" height="15.870967741935484" rx="2" fill="#4a90d9"/>
<text x="250.83333333333334" y="181.1290322580645" font-size="10" text-anchor="middle" font-weight="normal" fill="#555">3</text>
<rect x="271.0" y="184.1290322580645" width="36.333333333333336" height="15.870967741935484" rx="2" fill="#4a90d9"/>
<text x="289.1666666666667" y="181.1290322580645" font-size="10" text-anchor="middle" font-weight="normal" fill="#555">3</text>
<rect x="309.33333333333337" y="178.83870967741936" width="36.333333333333336" height="21.161290322580644" rx="2" fill="#4a90d9"/>
<text x="327.50000000000006" y="175.83870967741936" font-size="10" text-anchor="middle" font-weight="normal" fill="#555">4</text>
<rect x="347.6666666666667" y="173.5483870967742" width="36.333333333333336" height="26.451612903225804" rx="2" fill="#4a90d9"/>
<text x="365.83333333333337" y="170.5483870967742" font-size="10" text-anchor="middle" font-weight="normal" fill="#555">5</text>
<rect x="386.0" y="200.0" width="36.333333333333336" height="0.0" rx="2" fill="#4a90d9"/>
<rect x="424.33333333333337" y="200.0" width="36.333333333333336" height="0.0" rx="2" fill="#4a90d9"/>
<rect x="462.6666666666667" y="173.5483870967742" width="36.333333333333336" height="26.451612903225804" rx="2" fill="#4a90d9"/>
<text x="480.83333333333337" y="170.5483870967742" font-size="10" text-anchor="middle" font-weight="normal" fill="#555">5</text>
<text x="40" y="216" font-size="10" text-anchor="middle" font-weight="normal" fill="#666">215</text>
<text x="270.0" y="216" font-size="10" text-anchor="middle" font-weight="normal" fill="#666">5259</text>
<text x="500.0" y="216" font-size="10" text-anchor="middle" font-weight="normal" fill="#666">10303</text>
<text x="270.0" y="234" font-size="11" text-anchor="middle" font-weight="normal" fill="#444">ai 输出 token</text>
<text x="34" y="200" font-size="10" text-anchor="end" font-weight="normal" fill="#666">0</text>
<text x="34" y="44" font-size="10" text-anchor="end" font-weight="normal" fill="#666">31</text>
</svg>